<svg width="29" height="29" viewBox="0 0 29 29" fill="none" xmlns="http://www.w3.org/2000/svg">
<circle cx="14.5" cy="14.5" r="14.5" fill="#FAFAF9"/>
<path fill-rule="evenodd" clip-rule="evenodd" d="M21.7145 6.87547C22.0787 7.08485 22.1479 7.56553 21.8979 7.90314C21.6479 8.24075 21.1735 8.30594 20.8023 8.10934C20.038 7.70463 19.1786 7.50059 18.3056 7.52295C17.1778 7.55185 16.092 7.95698 15.2209 8.67392C14.3498 9.39086 13.7434 10.3785 13.4981 11.4797C13.2528 12.5809 13.3828 13.7325 13.8672 14.7514C14.3517 15.7702 15.1629 16.5979 16.1718 17.1027C17.1807 17.6076 18.3295 17.7606 19.4354 17.5375C20.5413 17.3144 21.5409 16.728 22.2752 15.8715C22.8436 15.2085 23.2278 14.4132 23.3963 13.5649C23.4782 13.1529 23.8282 12.8261 24.2478 12.8453C24.6675 12.8645 24.9966 13.2216 24.9291 13.6362C24.7358 14.8238 24.2196 15.9408 23.4302 16.8616C22.475 17.9758 21.1748 18.7386 19.7363 19.0288C18.2977 19.319 16.8035 19.1199 15.4911 18.4632C14.1787 17.8065 13.1235 16.7299 12.4933 15.4046C11.8632 14.0793 11.6942 12.5813 12.0132 11.1489C12.3323 9.7165 13.1211 8.43187 14.2542 7.4993C15.3873 6.56673 16.7996 6.03975 18.2667 6.00216C19.4791 5.97109 20.6714 6.27578 21.7145 6.87547Z" fill="#2F2D40"/>
<path fill-rule="evenodd" clip-rule="evenodd" d="M4.00455 11.8204C3.95609 12.2377 4.30119 12.5794 4.72128 12.5794C5.14138 12.5794 5.47607 12.2369 5.53901 11.8215C5.66858 10.9665 6.01602 10.1544 6.55351 9.46617C7.2479 8.57699 8.21963 7.94549 9.3142 7.67207C10.4088 7.39866 11.5633 7.49904 12.5943 7.95725C13.6252 8.41545 14.4734 9.20518 15.0039 10.2009C15.5344 11.1965 15.7169 12.341 15.5222 13.4523C15.3275 14.5635 14.7668 15.5778 13.9294 16.3338C13.092 17.0898 12.0258 17.5441 10.9005 17.6245C10.0226 17.6873 9.14793 17.5196 8.36115 17.1441C7.99225 16.968 7.53403 17.0526 7.30604 17.3919C7.06931 17.7442 7.17557 18.2263 7.55025 18.4257C8.96446 19.1783 9.73521 19.233 11.0089 19.142C12.4727 19.0374 13.8595 18.4464 14.9488 17.463C16.0381 16.4796 16.7674 15.1603 17.0206 13.7148C17.2739 12.2693 17.0366 10.7806 16.3465 9.48548C15.6564 8.19034 14.5532 7.16309 13.2121 6.56707C11.8711 5.97106 10.3693 5.84049 8.94552 6.19613C7.52175 6.55178 6.25775 7.37321 5.35451 8.52983C4.60801 9.48574 4.14334 10.6252 4.00455 11.8204Z" fill="#2F2D40"/>
<path fill-rule="evenodd" clip-rule="evenodd" d="M20.519 11.6469C20.7036 12.0162 20.5539 12.4653 20.1846 12.6499L17.194 14.1452C16.8247 14.3299 16.3756 14.1802 16.1909 13.8109C16.0062 13.4416 16.1559 12.9925 16.5253 12.8078L19.5159 11.3125C19.8852 11.1278 20.3343 11.2775 20.519 11.6469Z" fill="#32CAC9"/>
<path fill-rule="evenodd" clip-rule="evenodd" d="M5.99627 14.6369C6.34643 14.418 6.80769 14.5245 7.02654 14.8746L8.52185 17.2671C8.74069 17.6173 8.63425 18.0785 8.28409 18.2974C7.93394 18.5162 7.47267 18.4098 7.25383 18.0596L5.75852 15.6671C5.53967 15.317 5.64612 14.8557 5.99627 14.6369Z" fill="#2F2D40"/>
<path fill-rule="evenodd" clip-rule="evenodd" d="M13.3256 16.827C13.5517 16.6808 13.7668 16.5161 13.9687 16.3338C14.1998 16.1252 14.4097 15.897 14.5968 15.6525L15.8839 16.4716C15.6213 16.8295 15.3216 17.162 14.9881 17.463C14.7862 17.6453 14.5741 17.8141 14.3532 17.9688L13.3256 16.827Z" fill="#2F2D40"/>
<path d="M4.72132 12.5794C4.30123 12.5794 3.95613 12.2377 4.00459 11.8204C4.14338 10.6252 4.60805 9.48574 5.35455 8.52983C6.25779 7.37321 7.52179 6.55178 8.94556 6.19613C10.3693 5.84049 11.8711 5.97106 13.2122 6.56707C14.5532 7.16309 15.6565 8.19034 16.3466 9.48548C17.0366 10.7806 17.2739 12.2693 17.0207 13.7148C16.7674 15.1603 16.0381 16.4796 14.9488 17.463C13.8595 18.4464 12.4728 19.0374 11.009 19.142C9.73525 19.233 8.9645 19.1783 7.55029 18.4257C7.17561 18.2263 7.06935 17.7442 7.30608 17.3919C7.53407 17.0526 7.99229 16.968 8.36119 17.1441C9.14797 17.5196 10.0226 17.6873 10.9005 17.6245C12.0259 17.5441 13.092 17.0898 13.9294 16.3338C14.7669 15.5778 15.3275 14.5635 15.5222 13.4523C15.7169 12.341 15.5345 11.1965 15.004 10.2009C14.4734 9.20518 13.6253 8.41545 12.5943 7.95725C11.5634 7.49904 10.4088 7.39866 9.31424 7.67207C8.21968 7.94549 7.24794 8.57699 6.55355 9.46617C6.01606 10.1544 5.66862 10.9665 5.53905 11.8215C5.47611 12.2369 5.14142 12.5794 4.72132 12.5794Z" fill="#2F2D40"/>
<path d="M21.8979 7.90314C22.1479 7.56553 22.0787 7.08485 21.7145 6.87547C20.6714 6.27578 19.4791 5.97109 18.2667 6.00216C16.7996 6.03975 15.3873 6.56673 14.2542 7.4993C13.1211 8.43187 12.3323 9.7165 12.0132 11.1489C11.6942 12.5813 11.8632 14.0793 12.4933 15.4046C13.1235 16.7299 14.1787 17.8065 15.4911 18.4632C16.8035 19.1199 18.2977 19.319 19.7363 19.0288C21.1748 18.7386 22.475 17.9758 23.4302 16.8616C24.2196 15.9408 24.7358 14.8238 24.9291 13.6362C24.9966 13.2216 24.6675 12.8645 24.2478 12.8453C23.8282 12.8261 23.4782 13.1529 23.3963 13.5649C23.2278 14.4132 22.8436 15.2085 22.2752 15.8715C21.5409 16.728 20.5413 17.3144 19.4354 17.5375C18.3295 17.7606 17.1808 17.6076 16.1718 17.1027C15.1629 16.5979 14.3517 15.7702 13.8672 14.7513C13.3828 13.7325 13.2528 12.5809 13.4981 11.4797C13.7434 10.3785 14.3498 9.39086 15.2209 8.67392C16.092 7.95698 17.1778 7.55185 18.3056 7.52295C19.1786 7.50058 20.038 7.70463 20.8023 8.10934C21.1735 8.30593 21.6479 8.24075 21.8979 7.90314Z" fill="#32CAC9"/>
<path d="M8.13451 20.8946L7.35396 22.9731H6.9592L6.17566 20.8946H6.54051L7.15658 22.6232L7.77564 20.8946H8.13451Z" fill="url(#paint0_linear_28_3)"/>
<path d="M10.0884 21.1069C10.0266 21.1069 9.97475 21.086 9.93288 21.0441C9.89101 21.0022 9.87008 20.9504 9.87008 20.8886C9.87008 20.8268 9.89101 20.775 9.93288 20.7331C9.97475 20.6912 10.0266 20.6703 10.0884 20.6703C10.1482 20.6703 10.199 20.6912 10.2409 20.7331C10.2828 20.775 10.3037 20.8268 10.3037 20.8886C10.3037 20.9504 10.2828 21.0022 10.2409 21.0441C10.199 21.086 10.1482 21.1069 10.0884 21.1069ZM10.2559 21.3252V22.9731H9.91494V21.3252H10.2559Z" fill="url(#paint1_linear_28_3)"/>
<path d="M12.7969 23C12.6673 23 12.5507 22.9771 12.447 22.9312C12.3453 22.8833 12.2646 22.8195 12.2048 22.7398C12.145 22.6581 12.1131 22.5673 12.1091 22.4676H12.462C12.4679 22.5374 12.5008 22.5962 12.5606 22.6441C12.6225 22.69 12.6992 22.7129 12.7909 22.7129C12.8866 22.7129 12.9604 22.6949 13.0122 22.659C13.0661 22.6212 13.093 22.5733 13.093 22.5155C13.093 22.4537 13.0631 22.4078 13.0033 22.3779C12.9454 22.348 12.8527 22.3151 12.7251 22.2792C12.6015 22.2453 12.5008 22.2124 12.4231 22.1805C12.3453 22.1486 12.2775 22.0998 12.2197 22.034C12.1639 21.9682 12.136 21.8815 12.136 21.7738C12.136 21.6861 12.1619 21.6064 12.2137 21.5346C12.2656 21.4608 12.3393 21.403 12.435 21.3611C12.5327 21.3193 12.6444 21.2983 12.77 21.2983C12.9574 21.2983 13.1079 21.3462 13.2216 21.4419C13.3372 21.5356 13.399 21.6642 13.407 21.8277H13.0661C13.0601 21.7539 13.0302 21.6951 12.9763 21.6512C12.9225 21.6073 12.8497 21.5854 12.758 21.5854C12.6683 21.5854 12.5995 21.6024 12.5517 21.6363C12.5038 21.6702 12.4799 21.715 12.4799 21.7708C12.4799 21.8147 12.4959 21.8516 12.5278 21.8815C12.5597 21.9114 12.5985 21.9353 12.6444 21.9533C12.6902 21.9692 12.758 21.9901 12.8477 22.0161C12.9674 22.048 13.0651 22.0809 13.1408 22.1148C13.2186 22.1467 13.2854 22.1945 13.3412 22.2583C13.397 22.3221 13.4259 22.4068 13.4279 22.5125C13.4279 22.6062 13.402 22.69 13.3502 22.7637C13.2983 22.8375 13.2246 22.8953 13.1289 22.9372C13.0352 22.979 12.9245 23 12.7969 23Z" fill="url(#paint2_linear_28_3)"/>
<path d="M16.7839 21.3252V22.9731H16.443V22.7787C16.3892 22.8465 16.3184 22.9003 16.2307 22.9402C16.1449 22.978 16.0532 22.997 15.9555 22.997C15.8259 22.997 15.7093 22.9701 15.6056 22.9162C15.504 22.8624 15.4232 22.7827 15.3634 22.677C15.3056 22.5713 15.2767 22.4437 15.2767 22.2942V21.3252H15.6146V22.2434C15.6146 22.3909 15.6515 22.5045 15.7253 22.5843C15.799 22.662 15.8997 22.7009 16.0273 22.7009C16.1549 22.7009 16.2556 22.662 16.3294 22.5843C16.4051 22.5045 16.443 22.3909 16.443 22.2434V21.3252H16.7839Z" fill="url(#paint3_linear_28_3)"/>
<path d="M18.6154 22.1417C18.6154 21.9762 18.6493 21.8297 18.7171 21.7021C18.7869 21.5745 18.8806 21.4758 18.9982 21.406C19.1179 21.3342 19.2494 21.2983 19.393 21.2983C19.5226 21.2983 19.6352 21.3242 19.7309 21.3761C19.8286 21.4259 19.9064 21.4887 19.9642 21.5645V21.3252H20.3081V22.9731H19.9642V22.7278C19.9064 22.8056 19.8276 22.8704 19.7279 22.9222C19.6283 22.9741 19.5146 23 19.387 23C19.2455 23 19.1159 22.9641 18.9982 22.8923C18.8806 22.8185 18.7869 22.7169 18.7171 22.5873C18.6493 22.4557 18.6154 22.3072 18.6154 22.1417ZM19.9642 22.1477C19.9642 22.034 19.9403 21.9353 19.8924 21.8516C19.8466 21.7678 19.7858 21.704 19.71 21.6602C19.6342 21.6163 19.5525 21.5944 19.4648 21.5944C19.377 21.5944 19.2953 21.6163 19.2195 21.6602C19.1438 21.7021 19.082 21.7649 19.0341 21.8486C18.9883 21.9303 18.9653 22.028 18.9653 22.1417C18.9653 22.2553 18.9883 22.355 19.0341 22.4407C19.082 22.5265 19.1438 22.5923 19.2195 22.6381C19.2973 22.682 19.379 22.7039 19.4648 22.7039C19.5525 22.7039 19.6342 22.682 19.71 22.6381C19.7858 22.5943 19.8466 22.5305 19.8924 22.4467C19.9403 22.361 19.9642 22.2613 19.9642 22.1477Z" fill="url(#paint4_linear_28_3)"/>
<path d="M22.5922 20.76V22.9731H22.2512V20.76H22.5922Z" fill="url(#paint5_linear_28_3)"/>
<path fill-rule="evenodd" clip-rule="evenodd" d="M13.3256 16.827C13.5517 16.6808 13.7668 16.5161 13.9687 16.3338C14.1998 16.1252 14.4097 15.897 14.5968 15.6525L15.8839 16.4716C15.6213 16.8295 15.3216 17.162 14.9881 17.463C14.7862 17.6453 14.5741 17.8141 14.3532 17.9688L13.3256 16.827Z" fill="#2F2D40"/>
<defs>
<linearGradient id="paint0_linear_28_3" x1="6.09343" y1="22.9731" x2="22.6914" y2="22.9731" gradientUnits="userSpaceOnUse">
<stop stop-color="#2F2D40"/>
<stop offset="1" stop-color="#32CAC9"/>
</linearGradient>
<linearGradient id="paint1_linear_28_3" x1="6.09343" y1="22.9731" x2="22.6914" y2="22.9731" gradientUnits="userSpaceOnUse">
<stop stop-color="#2F2D40"/>
<stop offset="1" stop-color="#32CAC9"/>
</linearGradient>
<linearGradient id="paint2_linear_28_3" x1="6.09343" y1="22.9731" x2="22.6914" y2="22.9731" gradientUnits="userSpaceOnUse">
<stop stop-color="#2F2D40"/>
<stop offset="1" stop-color="#32CAC9"/>
</linearGradient>
<linearGradient id="paint3_linear_28_3" x1="6.09343" y1="22.9731" x2="22.6914" y2="22.9731" gradientUnits="userSpaceOnUse">
<stop stop-color="#2F2D40"/>
<stop offset="1" stop-color="#32CAC9"/>
</linearGradient>
<linearGradient id="paint4_linear_28_3" x1="6.09343" y1="22.9731" x2="22.6914" y2="22.9731" gradientUnits="userSpaceOnUse">
<stop stop-color="#2F2D40"/>
<stop offset="1" stop-color="#32CAC9"/>
</linearGradient>
<linearGradient id="paint5_linear_28_3" x1="6.09343" y1="22.9731" x2="22.6914" y2="22.9731" gradientUnits="userSpaceOnUse">
<stop stop-color="#2F2D40"/>
<stop offset="1" stop-color="#32CAC9"/>
</linearGradient>
</defs>
</svg>
