<svg width="3705" height="1454" viewBox="0 0 3705 1454" fill="none" xmlns="http://www.w3.org/2000/svg">
<path d="M142 881L195 542.5L0 405.5L221.5 153L573 239.5L706 352.5L615 480.5L684 1078L502.5 1135.5L451.5 587L442.5 1454L274.5 1443L299 578L250 916.5L142 881Z" fill="white"/>
<path d="M474.094 0C443.372 27.0968 379.343 81.2903 369 81.2903L451.991 168L555 110.888L474.094 0Z" fill="white"/>
<path fill-rule="evenodd" clip-rule="evenodd" d="M615 273.5L719 1038.5L1068.5 1139.5L1325 943.5L1446.5 663L1238.5 308L892 57L615 273.5ZM823 452.5L906.5 836.5L1048 862.5L1160.5 712.5V536L1007.5 357L823 452.5Z" fill="white"/>
<path d="M1495.09 655V326.8L1483.09 266.8L1495.69 230.8H1610.29L1727.89 458.8H1739.89L1837.09 230.8H1956.49L1962.49 266.8L1956.49 324.4V655H1847.89L1849.69 604V436.6H1843.09L1819.09 494.2L1765.09 595H1693.09L1610.29 436.6H1604.29V485.2L1610.29 655H1495.09ZM2040.46 655V326.2L2034.46 266.2L2040.46 230.2H2149.06V655H2040.46ZM2412.19 661C2386.59 661 2361.59 658 2337.19 652C2313.19 645.6 2291.39 634.4 2271.79 618.4C2252.59 602.4 2237.19 580.2 2225.59 551.8C2214.39 523.4 2208.79 487 2208.79 442.6C2208.79 398.2 2214.39 361.8 2225.59 333.4C2237.19 305 2252.59 282.8 2271.79 266.8C2291.39 250.8 2313.19 239.8 2337.19 233.8C2361.59 227.4 2386.59 224.2 2412.19 224.2C2437.79 224.2 2462.59 227.4 2486.59 233.8C2510.99 240.2 2532.79 251.4 2551.99 267.4C2571.59 283.4 2586.99 305.6 2598.19 334C2609.79 362.4 2615.59 398.6 2615.59 442.6C2615.59 486.6 2609.79 522.8 2598.19 551.2C2586.99 579.6 2571.59 601.8 2551.99 617.8C2532.79 633.8 2510.99 645 2486.59 651.4C2462.59 657.8 2437.79 661 2412.19 661ZM2412.19 559C2441.79 559 2464.19 550.2 2479.39 532.6C2494.59 515 2502.19 485 2502.19 442.6C2502.19 400.2 2494.59 370.2 2479.39 352.6C2464.19 335 2441.79 326.2 2412.19 326.2C2382.99 326.2 2360.79 335.2 2345.59 353.2C2330.39 371.2 2322.79 401 2322.79 442.6C2322.79 484.2 2330.39 514 2345.59 532C2360.79 550 2382.99 559 2412.19 559ZM2687.47 655V326.8L2675.47 266.8L2687.47 230.2H2866.27C2895.07 230.2 2922.67 233 2949.07 238.6C2975.87 243.8 2999.67 253.8 3020.47 268.6C3041.67 283.4 3058.27 304.6 3070.27 332.2C3082.67 359.8 3088.87 395.6 3088.87 439.6C3088.87 483.6 3082.67 519.8 3070.27 548.2C3057.87 576.2 3041.07 598 3019.87 613.6C2998.67 629.2 2974.67 640 2947.87 646C2921.47 652 2894.27 655 2866.27 655H2687.47ZM2796.67 559H2866.27C2901.47 559 2928.47 549.8 2947.27 531.4C2966.07 512.6 2975.47 482 2975.47 439.6C2975.47 397.2 2965.87 367.8 2946.67 351.4C2927.87 334.6 2901.07 326.2 2866.27 326.2H2796.67V559Z" fill="white"/>
<path d="M1672.7 1145C1641.9 1145 1612.7 1142 1585.1 1136C1557.9 1129.6 1533.7 1118.4 1512.5 1102.4C1491.7 1086.4 1475.3 1064.2 1463.3 1035.8C1451.3 1007.4 1445.3 971 1445.3 926.6C1445.3 883.8 1451.7 848.4 1464.5 820.4C1477.3 792 1494.3 769.6 1515.5 753.2C1537.1 736.8 1560.9 725.2 1586.9 718.4C1613.3 711.6 1639.9 708.2 1666.7 708.2C1686.3 708.2 1703.3 709.2 1717.7 711.2C1732.1 713.2 1745.9 715.8 1759.1 719L1840.7 766.4L1798.7 859.4L1666.1 812.6C1646.9 812.6 1629.1 816.4 1612.7 824C1596.7 831.6 1583.7 843.8 1573.7 860.6C1564.1 877 1559.3 899.2 1559.3 927.2C1559.3 972.4 1569.3 1004.2 1589.3 1022.6C1609.7 1040.6 1637.5 1049.6 1672.7 1049.6C1690.7 1049.6 1704.7 1048.8 1714.7 1047.2C1725.1 1045.2 1733.1 1043.6 1738.7 1042.4V996.8H1662.5V908H1853.3L1859.9 944L1846.7 993.8V1119.8C1842.3 1121.4 1832.3 1124.2 1816.7 1128.2C1801.5 1132.2 1781.5 1136 1756.7 1139.6C1732.3 1143.2 1704.3 1145 1672.7 1145ZM1890.19 1139L1918.99 1037.6V961.4L1963.39 943.4L2041.39 714.8H2196.79L2293.39 983.6L2339.59 1068.8V1139H2233.39L2203.39 1043H2028.79L2002.99 1139H1890.19ZM2068.39 950.6H2170.39L2124.79 813.2H2112.19L2068.39 950.6ZM2393.32 1139V810.8L2381.32 750.8L2393.92 714.8H2508.52L2626.12 942.8H2638.12L2735.32 714.8H2854.72L2860.72 750.8L2854.72 808.4V1139H2746.12L2747.92 1088V920.6H2741.32L2717.32 978.2L2663.32 1079H2591.32L2508.52 920.6H2502.52V969.2L2508.52 1139H2393.32ZM2944.69 1139L2932.69 1103L2944.69 1043V714.2H3241.69L3271.69 732.2L3232.09 816.2L3178.09 810.2H3052.69V876.2H3214.09V969.2H3143.29L3052.69 963.2V1043H3232.09L3303.49 1100.6L3268.09 1139H2944.69ZM3495.78 1145C3473.78 1145 3452.98 1143 3433.38 1139C3413.78 1134.6 3396.78 1129.4 3382.38 1123.4C3367.98 1117.4 3357.38 1111.8 3350.58 1106.6V999.2C3369.78 1010 3393.98 1020.2 3423.18 1029.8C3452.38 1039 3484.78 1043.6 3520.38 1043.6C3534.78 1043.6 3545.38 1041.8 3552.18 1038.2C3559.38 1034.2 3562.98 1027.4 3562.98 1017.8C3562.98 1007.4 3554.98 998.8 3538.98 992C3523.38 984.8 3498.58 976 3464.58 965.6C3438.18 957.2 3415.58 948 3396.78 938C3378.38 927.6 3364.18 914.8 3354.18 899.6C3344.58 884 3339.78 864.2 3339.78 840.2C3339.78 815.4 3346.18 793 3358.98 773C3371.78 753 3391.78 737.2 3418.98 725.6C3446.18 714 3480.98 708.2 3523.38 708.2C3536.18 708.2 3549.78 708.8 3564.18 710C3578.98 710.8 3590.78 712 3599.58 713.6L3667.38 763.4L3643.98 836.6L3501.78 797.6C3485.38 797.6 3473.18 801 3465.18 807.8C3457.58 814.6 3453.78 822.8 3453.78 832.4C3453.78 844 3460.38 853.2 3473.58 860C3486.78 866.8 3505.78 873.6 3530.58 880.4C3569.78 891.2 3600.18 903.2 3621.78 916.4C3643.38 929.6 3658.58 944.6 3667.38 961.4C3676.18 977.8 3680.58 996.4 3680.58 1017.2C3680.58 1055.6 3665.18 1086.6 3634.38 1110.2C3603.58 1133.4 3557.38 1145 3495.78 1145Z" fill="white"/>
</svg>
